<svg width="16" height="16" viewBox="0 0 16 16" fill="none" xmlns="http://www.w3.org/2000/svg">
<path fill-rule="evenodd" clip-rule="evenodd" d="M4.66305 0.5H11.3417C13.6548 0.517493 15.5159 2.406 15.4999 4.71881V9.22819C15.5076 10.3388 15.074 11.4071 14.2943 12.1982C13.5144 12.9896 12.4519 13.4389 11.3406 13.447L4.79361 13.447L1.24456 15.4362C1.08973 15.5229 0.900491 15.5211 0.747345 15.4314C0.594199 15.3417 0.5001 15.1775 0.5001 15V4.71878C0.492442 3.60819 0.926023 2.53997 1.7056 1.74889C2.4795 0.963574 3.55943 0.504018 4.66305 0.5ZM4.66494 1.5C3.81954 1.50662 3.01133 1.84859 2.41787 2.4508C1.82401 3.05342 1.49387 3.86727 1.50009 4.71333L1.50011 4.717L1.5001 14.1466L4.41859 12.5108C4.49327 12.469 4.57744 12.447 4.66305 12.447H11.3351C12.1805 12.4404 12.9887 12.0984 13.5821 11.4962C14.1748 10.8948 14.503 10.073 14.4999 9.23V4.71332C14.5129 2.95245 13.0966 1.5143 11.336 1.5H4.66494Z" fill="url(#paint0_linear_168_127)"/>
<defs>
<linearGradient id="paint0_linear_168_127" x1="0.5" y1="3.54687" x2="16.1369" y2="4.44791" gradientUnits="userSpaceOnUse">
<stop stop-color="#4F52FF"/>
<stop offset="0.380208" stop-color="#B441DC"/>
<stop offset="1" stop-color="#DC415D"/>
</linearGradient>
</defs>
</svg>
