<svg width="18" height="14" viewBox="0 0 18 14" fill="none" xmlns="http://www.w3.org/2000/svg">
<path fill-rule="evenodd" clip-rule="evenodd" d="M8.27956 3.69057C8.89649 3.5682 9.53602 3.63101 10.1171 3.87103C10.6983 4.11107 11.1949 4.51751 11.5442 5.03886C11.8935 5.56017 12.0799 6.17289 12.08 6.79971C12.0774 7.63957 11.7416 8.44452 11.1458 9.03859C10.55 9.63267 9.74249 9.96775 8.89972 9.97037C8.27074 9.97032 7.656 9.78432 7.13307 9.43594C6.61012 9.08753 6.20261 8.59233 5.96199 8.01304C5.72138 7.43387 5.65843 6.79649 5.78109 6.18165C5.90374 5.5667 6.20651 5.00181 6.6512 4.55841C7.09586 4.11499 7.66252 3.81294 8.27956 3.69057ZM8.90112 4.78519C8.50332 4.78519 8.10909 4.90391 7.77799 5.12459C7.44581 5.34591 7.18684 5.66053 7.03384 6.02876C6.88096 6.39698 6.84085 6.80216 6.91881 7.19315C6.99687 7.58408 7.18927 7.94315 7.47192 8.22488C7.75441 8.50666 8.11429 8.69848 8.50605 8.77615C8.89783 8.85382 9.30378 8.8139 9.67281 8.66155C10.0419 8.50908 10.3574 8.2509 10.5795 7.91954C10.7998 7.59087 10.9224 7.1951 10.92 6.79888C10.917 6.26558 10.7032 5.75506 10.3251 5.37813C9.9471 5.00113 9.43541 4.78818 8.90112 4.78519Z" fill="url(#paint0_linear_168_124)"/>
<path fill-rule="evenodd" clip-rule="evenodd" d="M8.9 13.6C5.94561 13.6 3.76711 12.0374 2.30245 10.4223C0.880455 8.85426 0.147786 7.25397 0.0509167 7.04239L0.0456543 7.03091C0.0154962 6.95757 0 6.87919 0 6.8C0 6.72081 0.0154962 6.64244 0.0456543 6.5691L0.0509167 6.55762C0.147786 6.34603 0.880454 4.74574 2.30245 3.17769C3.76711 1.5626 5.94561 0 8.9 0C11.8544 0 14.0329 1.5626 15.4975 3.17769C16.9195 4.74569 17.6522 6.34593 17.7491 6.55759L17.7543 6.56909C17.7845 6.64245 17.8 6.72082 17.8 6.8C17.8 6.87918 17.7845 6.95756 17.7543 7.03091L17.7491 7.04239C17.6522 7.25405 16.9195 8.85431 15.4975 10.4223C14.0329 12.0374 11.8544 13.6 8.9 13.6ZM1.26536 6.7085L1.21828 6.8L1.26536 6.8915C1.57724 7.49767 2.36893 8.87973 3.63591 10.1128C4.90337 11.3463 6.66149 12.4444 8.9 12.4444C11.1385 12.4444 12.8966 11.3463 14.1641 10.1128C15.4311 8.87973 16.2228 7.49767 16.5346 6.8915L16.5817 6.8L16.5346 6.7085C16.2228 6.10233 15.4311 4.72027 14.1641 3.48723C12.8966 2.25372 11.1385 1.15556 8.9 1.15556C6.66149 1.15556 4.90338 2.25372 3.63591 3.48723C2.36893 4.72027 1.57724 6.10233 1.26536 6.7085Z" fill="url(#paint1_linear_168_124)"/>
<defs>
<linearGradient id="paint0_linear_168_124" x1="3.15427e-07" y1="2.7625" x2="18.5121" y2="4.15865" gradientUnits="userSpaceOnUse">
<stop stop-color="#4F52FF"/>
<stop offset="0.380208" stop-color="#B441DC"/>
<stop offset="1" stop-color="#DC415D"/>
</linearGradient>
<linearGradient id="paint1_linear_168_124" x1="3.15427e-07" y1="2.7625" x2="18.5121" y2="4.15865" gradientUnits="userSpaceOnUse">
<stop stop-color="#4F52FF"/>
<stop offset="0.380208" stop-color="#B441DC"/>
<stop offset="1" stop-color="#DC415D"/>
</linearGradient>
</defs>
</svg>
