<svg width="18" height="16" viewBox="0 0 18 16" fill="none" xmlns="http://www.w3.org/2000/svg">
<path fill-rule="evenodd" clip-rule="evenodd" d="M8.84 2.70732C7.74537 1.04032 5.88927 0.300232 4.19487 0.546099C3.21098 0.688866 2.27984 1.16497 1.59628 1.98324C0.911465 2.803 0.5 3.9358 0.5 5.35075C0.5 8.21426 2.61398 10.7559 4.58652 12.5216C5.58851 13.4185 6.5882 14.1453 7.33631 14.6476C7.71085 14.899 8.02355 15.095 8.24355 15.2286C8.35359 15.2954 8.44052 15.3467 8.5005 15.3816C8.5305 15.3991 8.55376 15.4124 8.56982 15.4216L8.59357 15.4351L8.59509 15.4359C8.59509 15.4359 8.59588 15.4364 8.84 15L8.59509 15.4359C8.74677 15.5208 8.93244 15.5212 9.08412 15.4364L8.84 15C9.08412 15.4364 9.08412 15.4364 9.08412 15.4364L9.09157 15.4322L9.11018 15.4216C9.12624 15.4124 9.1495 15.3991 9.1795 15.3816C9.23948 15.3467 9.32641 15.2954 9.43645 15.2286C9.65645 15.095 9.96915 14.899 10.3437 14.6476C11.0918 14.1453 12.0915 13.4185 13.0935 12.5216C15.066 10.7559 17.18 8.21426 17.18 5.35075C17.18 3.9358 16.7685 2.803 16.0837 1.98324C15.4002 1.16497 14.469 0.688866 13.4851 0.546099C11.7907 0.300232 9.93464 1.04032 8.84 2.70732ZM8.84 14.4206C8.81585 14.4061 8.79006 14.3905 8.7627 14.3739C8.55395 14.2471 8.25415 14.0593 7.89369 13.8173C7.1718 13.3327 6.21149 12.634 5.25348 11.7765C3.30602 10.0333 1.5 7.75036 1.5 5.35075C1.5 4.1341 1.85076 3.2384 2.36372 2.62434C2.87794 2.0088 3.58013 1.64577 4.33847 1.53573C5.85923 1.31506 7.59838 2.11542 8.37952 3.96171C8.45778 4.1467 8.63914 4.26689 8.84 4.26689C9.04086 4.26689 9.22222 4.1467 9.30048 3.96171C10.0816 2.11542 11.8208 1.31506 13.3415 1.53573C14.0999 1.64577 14.8021 2.0088 15.3163 2.62434C15.8292 3.2384 16.18 4.1341 16.18 5.35075C16.18 7.75036 14.374 10.0333 12.4265 11.7765C11.4685 12.634 10.5082 13.3327 9.78631 13.8173C9.42585 14.0593 9.12605 14.2471 8.9173 14.3739C8.88994 14.3905 8.86415 14.4061 8.84 14.4206Z" fill="url(#paint0_linear_168_126)"/>
<defs>
<linearGradient id="paint0_linear_168_126" x1="0.5" y1="3.54687" x2="17.8746" y2="4.66018" gradientUnits="userSpaceOnUse">
<stop stop-color="#4F52FF"/>
<stop offset="0.380208" stop-color="#B441DC"/>
<stop offset="1" stop-color="#DC415D"/>
</linearGradient>
</defs>
</svg>
