<svg width="143" height="32" viewBox="0 0 143 32" fill="none" xmlns="http://www.w3.org/2000/svg">
<path d="M18.34 16.284C18.34 17.964 18.0787 19.4293 17.556 20.68C17.0333 21.912 16.296 22.9387 15.344 23.76C14.392 24.5627 13.2533 25.1693 11.928 25.58C10.6027 25.972 9.14667 26.168 7.56 26.168C6.776 26.168 5.908 26.1307 4.956 26.056C4.02267 26 3.17333 25.8787 2.408 25.692V6.876C3.17333 6.68933 4.02267 6.568 4.956 6.512C5.908 6.43733 6.776 6.4 7.56 6.4C9.14667 6.4 10.6027 6.60533 11.928 7.016C13.2533 7.408 14.392 8.01467 15.344 8.836C16.296 9.63867 17.0333 10.6653 17.556 11.916C18.0787 13.148 18.34 14.604 18.34 16.284ZM7.784 23.788C10.36 23.788 12.2827 23.1347 13.552 21.828C14.8213 20.5027 15.456 18.6547 15.456 16.284C15.456 13.9133 14.8213 12.0747 13.552 10.768C12.2827 9.44267 10.36 8.78 7.784 8.78C7.01867 8.78 6.42133 8.78933 5.992 8.808C5.58133 8.82667 5.292 8.84533 5.124 8.864V23.704C5.292 23.7227 5.58133 23.7413 5.992 23.76C6.42133 23.7787 7.01867 23.788 7.784 23.788ZM24.8049 26H22.2009V11.44H24.8049V26ZM23.4889 8.808C23.0223 8.808 22.6209 8.65867 22.2849 8.36C21.9676 8.04267 21.8089 7.62267 21.8089 7.1C21.8089 6.57733 21.9676 6.16667 22.2849 5.868C22.6209 5.55067 23.0223 5.392 23.4889 5.392C23.9556 5.392 24.3476 5.55067 24.6649 5.868C25.0009 6.16667 25.1689 6.57733 25.1689 7.1C25.1689 7.62267 25.0009 8.04267 24.6649 8.36C24.3476 8.65867 23.9556 8.808 23.4889 8.808ZM34.211 24.124C34.827 24.124 35.3683 24.1147 35.835 24.096C36.3203 24.0587 36.7216 24.0027 37.039 23.928V19.588C36.8523 19.4947 36.5443 19.42 36.115 19.364C35.7043 19.2893 35.2003 19.252 34.603 19.252C34.211 19.252 33.791 19.28 33.343 19.336C32.9136 19.392 32.5123 19.5133 32.139 19.7C31.7843 19.868 31.4856 20.1107 31.243 20.428C31.0003 20.7267 30.879 21.128 30.879 21.632C30.879 22.5653 31.1776 23.2187 31.775 23.592C32.3723 23.9467 33.1843 24.124 34.211 24.124ZM33.987 11.076C35.0323 11.076 35.9096 11.216 36.619 11.496C37.347 11.7573 37.9256 12.14 38.355 12.644C38.803 13.1293 39.1203 13.7173 39.307 14.408C39.4936 15.08 39.587 15.8267 39.587 16.648V25.748C39.363 25.7853 39.0456 25.8413 38.635 25.916C38.243 25.972 37.795 26.028 37.291 26.084C36.787 26.14 36.2363 26.1867 35.639 26.224C35.0603 26.28 34.4816 26.308 33.903 26.308C33.0816 26.308 32.3256 26.224 31.635 26.056C30.9443 25.888 30.347 25.6267 29.843 25.272C29.339 24.8987 28.947 24.4133 28.667 23.816C28.387 23.2187 28.247 22.5 28.247 21.66C28.247 20.8573 28.4056 20.1667 28.723 19.588C29.059 19.0093 29.507 18.5427 30.067 18.188C30.627 17.8333 31.2803 17.572 32.027 17.404C32.7736 17.236 33.5576 17.152 34.379 17.152C34.6403 17.152 34.911 17.1707 35.191 17.208C35.471 17.2267 35.7323 17.264 35.975 17.32C36.2363 17.3573 36.4603 17.3947 36.647 17.432C36.8336 17.4693 36.9643 17.4973 37.039 17.516V16.788C37.039 16.3587 36.9923 15.9387 36.899 15.528C36.8056 15.0987 36.6376 14.7253 36.395 14.408C36.1523 14.072 35.8163 13.8107 35.387 13.624C34.9763 13.4187 34.435 13.316 33.763 13.316C32.9043 13.316 32.1483 13.3813 31.495 13.512C30.8603 13.624 30.3843 13.7453 30.067 13.876L29.759 11.72C30.095 11.5707 30.655 11.4307 31.439 11.3C32.223 11.1507 33.0723 11.076 33.987 11.076ZM55.7559 23.648V26H44.0799V6.596H46.7959V23.648H55.7559ZM61.0354 26H58.4314V11.44H61.0354V26ZM59.7194 8.808C59.2527 8.808 58.8514 8.65867 58.5154 8.36C58.1981 8.04267 58.0394 7.62267 58.0394 7.1C58.0394 6.57733 58.1981 6.16667 58.5154 5.868C58.8514 5.55067 59.2527 5.392 59.7194 5.392C60.1861 5.392 60.5781 5.55067 60.8954 5.868C61.2314 6.16667 61.3994 6.57733 61.3994 7.1C61.3994 7.62267 61.2314 8.04267 60.8954 8.36C60.5781 8.65867 60.1861 8.808 59.7194 8.808ZM71.1974 4.272C71.9628 4.272 72.6161 4.328 73.1574 4.44C73.7174 4.552 74.1094 4.65466 74.3334 4.748L73.8574 6.988C73.6334 6.876 73.3161 6.77333 72.9054 6.68C72.4948 6.568 71.9908 6.512 71.3934 6.512C70.1801 6.512 69.3308 6.848 68.8454 7.52C68.3601 8.17333 68.1174 9.06 68.1174 10.18V11.44H73.7174V13.624H68.1174V26H65.5134V10.124C65.5134 8.25733 65.9708 6.82 66.8854 5.812C67.8001 4.78533 69.2374 4.272 71.1974 4.272ZM75.5022 18.748C75.5022 17.46 75.6889 16.34 76.0622 15.388C76.4356 14.4173 76.9302 13.6147 77.5462 12.98C78.1622 12.3453 78.8716 11.8693 79.6742 11.552C80.4769 11.2347 81.2982 11.076 82.1382 11.076C84.0982 11.076 85.6009 11.692 86.6462 12.924C87.6916 14.1373 88.2142 15.9947 88.2142 18.496C88.2142 18.608 88.2142 18.7573 88.2142 18.944C88.2142 19.112 88.2049 19.2707 88.1862 19.42H78.2182C78.3302 20.932 78.7689 22.08 79.5342 22.864C80.2996 23.648 81.4942 24.04 83.1182 24.04C84.0329 24.04 84.7982 23.9653 85.4142 23.816C86.0489 23.648 86.5249 23.4893 86.8422 23.34L87.2062 25.524C86.8889 25.692 86.3289 25.8693 85.5262 26.056C84.7422 26.2427 83.8462 26.336 82.8382 26.336C81.5689 26.336 80.4676 26.1493 79.5342 25.776C78.6196 25.384 77.8636 24.852 77.2662 24.18C76.6689 23.508 76.2209 22.7147 75.9222 21.8C75.6422 20.8667 75.5022 19.8493 75.5022 18.748ZM85.4982 17.32C85.5169 16.144 85.2182 15.1827 84.6022 14.436C84.0049 13.6707 83.1742 13.288 82.1102 13.288C81.5129 13.288 80.9809 13.4093 80.5142 13.652C80.0662 13.876 79.6836 14.1747 79.3662 14.548C79.0489 14.9213 78.7969 15.3507 78.6102 15.836C78.4422 16.3213 78.3302 16.816 78.2742 17.32H85.4982Z" fill="#080F22"/>
<path d="M142 18.8H130.752L125.129 8L115.279 26L111.068 18.8H99" stroke="url(#paint0_linear_23_176)" stroke-width="2" stroke-linecap="round" stroke-linejoin="round"/>
<defs>
<linearGradient id="paint0_linear_23_176" x1="99" y1="11.6562" x2="143.138" y2="17.7321" gradientUnits="userSpaceOnUse">
<stop stop-color="#4F52FF"/>
<stop offset="0.380208" stop-color="#B441DC"/>
<stop offset="1" stop-color="#DC415D"/>
</linearGradient>
</defs>
</svg>
