<svg width="14" height="14" viewBox="0 0 14 14" fill="none" xmlns="http://www.w3.org/2000/svg">
<path d="M5 6L9 4M9 10L5 8M11 1C9.8954 1 9 1.8954 9 3C9 4.1046 9.8954 5 11 5C12.1046 5 13 4.1046 13 3C13 1.8954 12.1046 1 11 1ZM3 5C1.89543 5 1 5.8954 1 7C1 8.1046 1.89543 9 3 9C4.10457 9 5 8.1046 5 7C5 5.8954 4.10457 5 3 5ZM11 9C9.8954 9 9 9.89543 9 11C9 12.1046 9.8954 13 11 13C12.1046 13 13 12.1046 13 11C13 9.89543 12.1046 9 11 9Z" stroke="white" stroke-linecap="round" stroke-linejoin="round"/>
</svg>
